<svg width="640" height="960" viewBox="0 0 640 960" fill="none" xmlns="http://www.w3.org/2000/svg">
  <defs>
    <linearGradient id="bg" x1="0" y1="0" x2="1" y2="1">
      <stop offset="0" stop-color="#1E293B"/>
      <stop offset="1" stop-color="#0F172A"/>
    </linearGradient>
    <linearGradient id="light" x1="0.2" y1="0" x2="1" y2="1">
      <stop offset="0" stop-color="#60A5FA" stop-opacity="0.8"/>
      <stop offset="1" stop-color="#818CF8" stop-opacity="0.4"/>
    </linearGradient>
    <clipPath id="clip">
      <rect x="48" y="40" width="544" height="880" rx="40"/>
    </clipPath>
  </defs>
  <rect width="640" height="960" rx="48" fill="url(#bg)"/>
  <g clip-path="url(#clip)">
    <rect x="48" y="40" width="544" height="880" rx="40" fill="#0B1220"/>
    <circle cx="520" cy="140" r="140" fill="url(#light)" opacity="0.9"/>
    <circle cx="120" cy="820" r="170" fill="#38BDF8" opacity="0.25"/>
    <rect x="150" y="160" width="340" height="520" rx="36" fill="#111827"/>
    <rect x="180" y="200" width="280" height="240" rx="28" fill="#1F2937"/>
    <rect x="210" y="470" width="220" height="28" rx="14" fill="#E2E8F0" opacity="0.75"/>
    <rect x="210" y="520" width="200" height="20" rx="10" fill="#E2E8F0" opacity="0.5"/>
    <rect x="210" y="560" width="160" height="20" rx="10" fill="#E2E8F0" opacity="0.35"/>
    <circle cx="320" cy="300" r="90" fill="#334155"/>
    <circle cx="320" cy="280" r="60" fill="#475569"/>
  </g>
</svg>
